<svg width="110" height="110" xmlns="http://www.w3.org/2000/svg">

 <g>
  <title>background</title>
  <rect fill="none" id="canvas_background" height="402" width="582" y="-1" x="-1"/>
 </g>
 <g>
  <title>Layer 1</title>
  <circle id="svg_1" fill="#ea2727" r="55" cy="55" cx="55"/>
  <path id="svg_3" fill="#F0F1F1" d="m79,47.006001c1.198997,-10.786999 -9.363998,-20.006001 -20,-20.006001c-9.324001,0 -18.992001,7.09 -19.908001,16.173c-8.667,-1.302002 -16.091999,5.43 -16.091999,13.827c0,7.732002 6.268,14 14,14l38,0c6.626999,0 12,-5.373001 12,-12c0,-6.735001 -5,-11.993999 -8,-11.993999z"/>
  <path id="svg_4" fill="#FFFFFF" d="m59,27c-9.324001,0 -18.992001,7.09 -19.908001,16.173c-8.667,-1.302002 -16.091999,5.43 -16.091999,13.827c0,7.732002 6.268,14 14,14l0.747002,0l36.841995,-36.841999c-3.860001,-4.34 -9.711998,-7.158001 -15.588997,-7.158001z"/>
  <path id="svg_5" fill="#3E3E3F" d="m47,57.692001l0,19.541c-3.922001,-0.925003 -8,1.017998 -8,3.767998c0,2.209 2.687,4 6,4s6,-1.791 6,-4l0,-20.693001l12,-5.25l0,14.174004c-3.922001,-0.925003 -8,1.017998 -8,3.767998c0,2.209 2.687,4 6,4s6,-1.791 6,-4l0,-24.057999l-20,8.75z"/>
 </g>
</svg>